<mxfile host="app.diagrams.net" modified="2023-06-26T14:44:50.430Z" agent="Mozilla/5.0 (Windows NT 10.0; Win64; x64) AppleWebKit/537.36 (KHTML, like Gecko) Chrome/114.0.0.0 Safari/537.36" version="21.5.0" etag="i-UODY4gALRXZ8qiyak8" type="github">
  <diagram name="Page-1" id="nqyWh6XNQfNxxhKSjI7p">
    <mxGraphModel>
      <root>
        <mxCell id="0" />
        <mxCell id="1" parent="0" />
      </root>
    </mxGraphModel>
  </diagram>
</mxfile>
